<svg version="1.1" xmlns="http://www.w3.org/2000/svg" xmlns:xlink="http://www.w3.org/1999/xlink" viewBox="0 0 32 32" width="1000" height="1000" style="fill: rgb(7, 107, 255);"><defs><clipPath id="clip-1"><rect x="0" y="0" transform="scale(0.09143,0.09143)" width="350" height="350" fill="none"/></clipPath><clipPath id="clip-2"><rect x="4" y="4" transform="scale(0.8,0.8)" width="32" height="32" id="clip-1" fill="none"/></clipPath></defs><g fill="none" fill-rule="nonzero" stroke="none" stroke-width="1" stroke-linecap="butt" stroke-linejoin="miter" stroke-miterlimit="10" stroke-dasharray="" stroke-dashoffset="0" font-family="none" font-weight="none" font-size="none" text-anchor="none" style="mix-blend-mode: normal"><g clip-path="url(#clip-1)"><g><path d="M0,32v-32h32v32z" fill="none"/><path d="M0,32v-32h32v32zM0.64,31.36v-30.72h30.72v30.72z" fill="#333333"/><g clip-path="url(#clip-2)"><path d="M4.8,7.2v0.8v16v0.8h0.8h20.8h0.8v-0.8v-16v-0.8h-0.8h-20.8zM6.4,8.8h19.2v11.125l-4.225,-4.25l-0.575,-0.575l-0.575,0.575l-3.05,3.05l-4.6,-4.65l-0.575,-0.575l-0.575,0.575l-5.025,5.025zM22.4,10.4c-0.88366,0 -1.6,0.71634 -1.6,1.6c0,0.88366 0.71634,1.6 1.6,1.6c0.88366,0 1.6,-0.71634 1.6,-1.6c0,-0.88366 -0.71634,-1.6 -1.6,-1.6zM12,15.775l7.35,7.425h-12.95v-1.825zM20.8,17.375l4.8,4.8v1.025h-3.975l-3.325,-3.35z" fill="#076bff"/></g></g></g></g></svg>